<mxfile host="app.diagrams.net" agent="Mozilla/5.0 (Windows NT 10.0; Win64; x64) AppleWebKit/537.36 (KHTML, like Gecko) Chrome/139.0.0.0 Safari/537.36" version="28.1.2">
  <diagram name="Page-1" id="e7e014a7-5840-1c2e-5031-d8a46d1fe8dd">
    <mxGraphModel dx="909" dy="405" grid="1" gridSize="10" guides="1" tooltips="1" connect="1" arrows="1" fold="1" page="1" pageScale="1" pageWidth="1169" pageHeight="826" background="none" math="0" shadow="0">
      <root>
        <mxCell id="0" />
        <mxCell id="1" parent="0" />
        <mxCell id="2" value="User" style="swimlane;whiteSpace=wrap" parent="1" vertex="1">
          <mxGeometry x="164.5" y="128" width="295.5" height="570" as="geometry" />
        </mxCell>
        <mxCell id="5" value="" style="ellipse;shape=startState;fillColor=#000000;strokeColor=#ff0000;" parent="2" vertex="1">
          <mxGeometry x="100" y="40" width="30" height="30" as="geometry" />
        </mxCell>
        <mxCell id="6" value="" style="edgeStyle=elbowEdgeStyle;elbow=horizontal;verticalAlign=bottom;endArrow=open;endSize=8;strokeColor=#FF0000;endFill=1;rounded=0;entryX=0.5;entryY=0;entryDx=0;entryDy=0;" parent="2" source="5" target="nrm5gT5TRZCLA9omSYWF-41" edge="1">
          <mxGeometry x="100" y="40" as="geometry">
            <mxPoint x="115.5" y="110" as="targetPoint" />
          </mxGeometry>
        </mxCell>
        <mxCell id="nrm5gT5TRZCLA9omSYWF-41" value="Input bookID" style="rounded=1;whiteSpace=wrap;html=1;" vertex="1" parent="2">
          <mxGeometry x="55" y="110" width="120" height="60" as="geometry" />
        </mxCell>
        <mxCell id="nrm5gT5TRZCLA9omSYWF-51" value="Confirm Book devolution" style="rounded=1;whiteSpace=wrap;html=1;" vertex="1" parent="2">
          <mxGeometry x="55" y="212" width="120" height="60" as="geometry" />
        </mxCell>
        <mxCell id="nrm5gT5TRZCLA9omSYWF-53" value="Indicate pending fine" style="rounded=1;whiteSpace=wrap;html=1;" vertex="1" parent="2">
          <mxGeometry x="55" y="364" width="120" height="60" as="geometry" />
        </mxCell>
        <mxCell id="3" value="Library System" style="swimlane;whiteSpace=wrap" parent="1" vertex="1">
          <mxGeometry x="444.5" y="128" width="280" height="570" as="geometry" />
        </mxCell>
        <mxCell id="nrm5gT5TRZCLA9omSYWF-42" value="Check BookID" style="rounded=1;whiteSpace=wrap;html=1;" vertex="1" parent="3">
          <mxGeometry x="81" y="110" width="120" height="60" as="geometry" />
        </mxCell>
        <mxCell id="nrm5gT5TRZCLA9omSYWF-50" style="edgeStyle=orthogonalEdgeStyle;rounded=0;orthogonalLoop=1;jettySize=auto;html=1;exitX=0.5;exitY=1;exitDx=0;exitDy=0;entryX=0.5;entryY=0;entryDx=0;entryDy=0;" edge="1" parent="3" source="nrm5gT5TRZCLA9omSYWF-46" target="nrm5gT5TRZCLA9omSYWF-49">
          <mxGeometry relative="1" as="geometry" />
        </mxCell>
        <mxCell id="nrm5gT5TRZCLA9omSYWF-46" value="Check return date&lt;div&gt;expiry&lt;/div&gt;" style="rounded=1;whiteSpace=wrap;html=1;" vertex="1" parent="3">
          <mxGeometry x="81" y="202" width="120" height="60" as="geometry" />
        </mxCell>
        <mxCell id="nrm5gT5TRZCLA9omSYWF-55" value="YES" style="edgeStyle=orthogonalEdgeStyle;rounded=0;orthogonalLoop=1;jettySize=auto;html=1;exitX=0.5;exitY=1;exitDx=0;exitDy=0;entryX=0.5;entryY=0;entryDx=0;entryDy=0;" edge="1" parent="3" source="nrm5gT5TRZCLA9omSYWF-49" target="nrm5gT5TRZCLA9omSYWF-54">
          <mxGeometry relative="1" as="geometry" />
        </mxCell>
        <mxCell id="nrm5gT5TRZCLA9omSYWF-49" value="Date&amp;nbsp;&lt;div&gt;overdue?&lt;/div&gt;" style="rhombus;whiteSpace=wrap;html=1;" vertex="1" parent="3">
          <mxGeometry x="100.5" y="302" width="80" height="80" as="geometry" />
        </mxCell>
        <mxCell id="nrm5gT5TRZCLA9omSYWF-57" style="edgeStyle=orthogonalEdgeStyle;rounded=0;orthogonalLoop=1;jettySize=auto;html=1;exitX=0.5;exitY=1;exitDx=0;exitDy=0;entryX=0.5;entryY=0;entryDx=0;entryDy=0;" edge="1" parent="3" source="nrm5gT5TRZCLA9omSYWF-54" target="nrm5gT5TRZCLA9omSYWF-56">
          <mxGeometry relative="1" as="geometry" />
        </mxCell>
        <mxCell id="nrm5gT5TRZCLA9omSYWF-54" value="Calculate fine" style="rounded=1;whiteSpace=wrap;html=1;" vertex="1" parent="3">
          <mxGeometry x="80.5" y="415" width="120" height="60" as="geometry" />
        </mxCell>
        <mxCell id="nrm5gT5TRZCLA9omSYWF-56" value="Record fine" style="rounded=1;whiteSpace=wrap;html=1;" vertex="1" parent="3">
          <mxGeometry x="81" y="502" width="120" height="60" as="geometry" />
        </mxCell>
        <mxCell id="4" value="Book record database" style="swimlane;whiteSpace=wrap" parent="1" vertex="1">
          <mxGeometry x="724.5" y="128" width="280" height="570" as="geometry" />
        </mxCell>
        <mxCell id="nrm5gT5TRZCLA9omSYWF-59" value="Update book status" style="rounded=1;whiteSpace=wrap;html=1;" vertex="1" parent="4">
          <mxGeometry x="70" y="202" width="120" height="60" as="geometry" />
        </mxCell>
        <mxCell id="nrm5gT5TRZCLA9omSYWF-43" style="edgeStyle=orthogonalEdgeStyle;rounded=0;orthogonalLoop=1;jettySize=auto;html=1;entryX=0;entryY=0.5;entryDx=0;entryDy=0;" edge="1" parent="1" source="nrm5gT5TRZCLA9omSYWF-41" target="nrm5gT5TRZCLA9omSYWF-42">
          <mxGeometry relative="1" as="geometry" />
        </mxCell>
        <mxCell id="nrm5gT5TRZCLA9omSYWF-60" style="edgeStyle=orthogonalEdgeStyle;rounded=0;orthogonalLoop=1;jettySize=auto;html=1;" edge="1" parent="1" source="nrm5gT5TRZCLA9omSYWF-44" target="nrm5gT5TRZCLA9omSYWF-59">
          <mxGeometry relative="1" as="geometry" />
        </mxCell>
        <mxCell id="nrm5gT5TRZCLA9omSYWF-44" value="Find record and&lt;div&gt;return date&lt;/div&gt;" style="rounded=1;whiteSpace=wrap;html=1;" vertex="1" parent="1">
          <mxGeometry x="795" y="238" width="120" height="60" as="geometry" />
        </mxCell>
        <mxCell id="nrm5gT5TRZCLA9omSYWF-45" style="edgeStyle=orthogonalEdgeStyle;rounded=0;orthogonalLoop=1;jettySize=auto;html=1;entryX=0;entryY=0.5;entryDx=0;entryDy=0;" edge="1" parent="1" source="nrm5gT5TRZCLA9omSYWF-42" target="nrm5gT5TRZCLA9omSYWF-44">
          <mxGeometry relative="1" as="geometry" />
        </mxCell>
        <mxCell id="nrm5gT5TRZCLA9omSYWF-52" value="NO" style="edgeStyle=orthogonalEdgeStyle;rounded=0;orthogonalLoop=1;jettySize=auto;html=1;entryX=1;entryY=0.5;entryDx=0;entryDy=0;" edge="1" parent="1" source="nrm5gT5TRZCLA9omSYWF-49" target="nrm5gT5TRZCLA9omSYWF-51">
          <mxGeometry relative="1" as="geometry">
            <Array as="points">
              <mxPoint x="420" y="470" />
              <mxPoint x="420" y="370" />
            </Array>
          </mxGeometry>
        </mxCell>
        <mxCell id="nrm5gT5TRZCLA9omSYWF-58" style="edgeStyle=orthogonalEdgeStyle;rounded=0;orthogonalLoop=1;jettySize=auto;html=1;entryX=1;entryY=0.5;entryDx=0;entryDy=0;" edge="1" parent="1" source="nrm5gT5TRZCLA9omSYWF-56" target="nrm5gT5TRZCLA9omSYWF-53">
          <mxGeometry relative="1" as="geometry" />
        </mxCell>
        <mxCell id="nrm5gT5TRZCLA9omSYWF-61" style="edgeStyle=orthogonalEdgeStyle;rounded=0;orthogonalLoop=1;jettySize=auto;html=1;entryX=1;entryY=0.5;entryDx=0;entryDy=0;" edge="1" parent="1" source="nrm5gT5TRZCLA9omSYWF-59" target="nrm5gT5TRZCLA9omSYWF-46">
          <mxGeometry relative="1" as="geometry" />
        </mxCell>
      </root>
    </mxGraphModel>
  </diagram>
</mxfile>
